<?xml version="1.0" standalone="no"?>
<!DOCTYPE svg PUBLIC "-//W3C//DTD SVG 20010904//EN"
 "http://www.w3.org/TR/2001/REC-SVG-20010904/DTD/svg10.dtd">
<svg version="1.0" xmlns="http://www.w3.org/2000/svg"
 width="149.000000pt" height="142.000000pt" viewBox="0 0 149.000000 142.000000"
 preserveAspectRatio="xMidYMid meet" style="background: transparent;">

<g transform="translate(0.000000,142.000000) scale(0.100000,-0.100000)" fill="#000000" stroke="none">
<path d="M656 1188 c-15 -13 -29 -37 -32 -55 -6 -31 -3 -34 57 -72 35 -23 71
-41 80 -41 20 0 49 32 34 37 -30 10 -59 30 -69 46 -16 27 15 48 55 37 40 -12
39 10 -2 44 -39 33 -88 34 -123 4z"/>
<path d="M591 1033 c-24 -21 -76 -231 -66 -270 7 -29 33 -43 120 -63 l70 -17
0 -79 c0 -78 0 -79 27 -82 22 -3 28 2 36 30 22 72 35 168 24 181 -6 7 -41 19
-77 26 -36 7 -68 17 -71 22 -2 5 0 28 6 51 19 74 18 73 43 49 18 -16 36 -21
74 -21 66 0 83 7 83 34 0 33 -19 46 -67 46 -37 0 -46 5 -75 41 -30 38 -74 69
-96 69 -6 0 -19 -8 -31 -17z"/>
<path d="M250 1015 c-19 -23 -4 -47 27 -43 22 2 29 9 31 31 3 23 0 27 -21 27
-14 0 -30 -7 -37 -15z"/>
<path d="M340 976 c0 -56 0 -56 31 -56 l30 0 -3 53 c-3 48 -5 52 -30 55 -28 3
-28 2 -28 -52z"/>
<path d="M430 1000 c0 -27 3 -30 30 -30 25 0 30 4 30 24 0 23 -16 36 -46 36
-9 0 -14 -11 -14 -30z"/>
<path d="M240 887 c0 -29 5 -58 12 -65 13 -13 192 -17 222 -6 12 5 16 21 16
65 0 58 0 59 -28 59 -21 0 -32 -7 -40 -24 -21 -46 -112 -42 -112 4 0 16 -7 20
-35 20 l-35 0 0 -53z"/>
<path d="M891 930 c-15 -9 -12 -24 13 -82 l16 -37 -58 1 c-32 1 -68 -4 -82
-12 l-25 -13 32 -14 c51 -21 56 -40 37 -146 -18 -99 -40 -137 -81 -137 -13 0
-33 10 -44 21 -19 19 -21 29 -15 85 l6 63 -37 10 c-21 6 -44 11 -51 11 -30 0
-90 41 -102 69 l-12 31 -123 0 c-97 0 -125 -3 -135 -15 -10 -12 -9 -20 3 -39
14 -21 25 -24 100 -28 64 -3 97 -10 132 -29 54 -27 101 -80 114 -127 9 -28 7
-32 -10 -32 -12 0 -23 10 -30 28 -37 97 -154 139 -250 89 -109 -58 -121 -219
-22 -294 36 -27 110 -41 157 -29 36 9 96 65 113 103 l13 33 118 1 c64 1 128 4
142 8 18 5 43 37 90 113 36 59 68 110 72 114 4 3 13 -5 19 -20 11 -24 10 -30
-19 -59 -74 -77 -70 -183 12 -255 43 -38 71 -46 136 -40 90 9 150 79 150 175
0 96 -78 173 -176 173 -38 0 -45 4 -59 30 -20 39 -20 40 19 40 19 0 38 5 41
10 4 6 1 34 -5 61 -11 44 -19 55 -58 80 -58 36 -65 36 -57 -1 10 -45 -11 -37
-33 14 -22 49 -32 58 -51 46z m-439 -382 l31 -33 -49 -5 c-49 -5 -74 -15 -74
-28 1 -23 25 -37 70 -42 l52 -5 -21 -27 c-65 -82 -196 -35 -196 69 0 38 5 49
33 74 26 23 42 29 78 29 39 0 51 -5 76 -32z m720 3 c83 -74 4 -210 -105 -180
-46 12 -77 52 -77 96 0 35 24 93 39 93 4 0 18 -23 32 -52 41 -88 78 -68 41 22
l-21 50 29 0 c19 0 42 -11 62 -29z"/>
</g>
</svg>
