<?xml version="1.0" standalone="no"?>
<!DOCTYPE svg PUBLIC "-//W3C//DTD SVG 20010904//EN"
 "http://www.w3.org/TR/2001/REC-SVG-20010904/DTD/svg10.dtd">
<svg version="1.0" xmlns="http://www.w3.org/2000/svg"
 width="728.000000pt" height="728.000000pt" viewBox="0 0 728.000000 728.000000"
 preserveAspectRatio="xMidYMid meet">

<g transform="translate(0.000000,728.000000) scale(0.100000,-0.100000)"
fill="#000000" stroke="none">
<path d="M5670 5189 c-119 -13 -233 -99 -288 -217 -36 -79 -37 -210 -2 -292
13 -30 30 -61 36 -67 7 -7 21 -23 31 -36 32 -42 116 -94 179 -110 79 -22 125
-21 203 3 234 74 336 345 206 550 -79 125 -210 186 -365 169z"/>
<path d="M1175 5127 c-201 -61 -314 -282 -243 -474 64 -173 229 -273 407 -244
128 21 220 89 277 206 35 71 36 77 32 167 -4 111 -31 177 -104 252 -69 70
-140 99 -244 103 -47 1 -103 -3 -125 -10z"/>
<path d="M3930 4855 c-139 -40 -240 -156 -259 -300 -35 -254 174 -459 426
-417 158 26 265 131 299 292 31 151 -48 328 -177 394 -85 45 -200 57 -289 31z"/>
<path d="M2900 4541 c-93 -18 -182 -90 -209 -170 -17 -52 -13 -150 8 -196 59
-129 208 -190 334 -136 98 42 167 142 167 242 0 107 -87 223 -187 249 -69 18
-74 18 -113 11z"/>
<path d="M5676 4313 c-49 -8 -85 -36 -151 -118 -16 -21 -48 -59 -70 -85 -22
-26 -58 -69 -80 -95 -75 -91 -59 -85 -216 -85 -147 0 -210 -10 -244 -38 -86
-73 -78 -210 17 -267 30 -18 54 -20 256 -23 210 -3 224 -2 265 18 23 12 53 36
66 53 l23 32 -6 -29 c-4 -15 -36 -90 -73 -165 -36 -75 -92 -191 -124 -258 -61
-126 -69 -165 -45 -199 13 -17 31 -20 177 -24 l163 -5 -36 -35 c-57 -55 -60
-78 -56 -436 l3 -321 27 -40 c65 -98 208 -95 271 7 21 33 22 47 25 310 l3 275
52 37 c29 20 61 44 72 53 11 9 62 47 113 85 l93 70 235 0 236 0 34 34 c45 45
45 87 0 192 -18 43 -50 120 -70 169 -20 50 -41 99 -46 110 -5 11 -21 49 -35
85 -14 36 -30 74 -35 85 -9 19 -59 142 -122 295 -90 223 -107 255 -143 285
l-37 30 -256 1 c-142 1 -270 0 -286 -3z"/>
<path d="M807 4291 c-46 -30 -58 -57 -67 -149 -5 -48 -13 -125 -19 -172 -5
-47 -19 -182 -31 -300 -12 -118 -28 -267 -35 -331 -8 -63 -15 -142 -15 -176 0
-55 3 -63 34 -95 41 -42 73 -48 248 -48 l120 0 126 -87 c70 -47 148 -101 174
-120 l47 -34 3 -273 3 -273 27 -40 c66 -100 210 -95 274 10 18 30 19 56 22
362 l3 330 -25 45 c-23 42 -134 134 -193 160 l-23 10 0 314 c0 276 2 315 15
310 8 -4 15 -9 15 -13 0 -15 85 -94 115 -107 26 -10 84 -14 233 -14 110 0 214
3 232 6 44 9 105 70 118 117 13 47 -7 123 -40 154 -48 43 -68 47 -240 51
l-168 4 -42 52 c-24 28 -50 59 -58 68 -8 9 -53 63 -100 120 -47 57 -100 112
-118 121 -29 15 -69 17 -320 17 -262 0 -289 -2 -315 -19z"/>
<path d="M3985 4009 c-231 -22 -422 -186 -496 -425 -19 -62 -21 -64 -54 -64
-36 0 -36 0 -61 105 -28 122 -148 247 -289 301 -68 26 -218 26 -295 0 -58 -20
-157 -85 -201 -133 -35 -38 -99 -173 -99 -210 0 -63 6 -62 -330 -65 -275 -3
-308 -5 -335 -21 -42 -26 -64 -69 -72 -137 -11 -113 34 -209 108 -230 19 -6
145 -10 281 -10 l247 0 3 -472 c3 -517 0 -490 63 -540 24 -19 40 -22 124 -22
121 -1 143 5 178 51 l28 36 3 264 3 263 687 -2 687 -3 5 -265 c3 -146 9 -272
13 -281 26 -52 127 -79 242 -64 45 5 65 14 94 40 l36 33 3 481 3 480 297 3
c330 3 334 4 368 71 22 40 30 168 15 222 -6 23 -25 54 -41 70 l-31 30 -257 3
c-155 2 -262 8 -269 14 -7 5 -15 26 -19 47 -14 75 -73 179 -142 249 -74 75
-105 98 -172 129 -107 50 -196 64 -325 52z m183 -1014 c1 -66 0 -130 -3 -142
l-5 -23 -685 0 -685 0 0 145 0 145 688 -2 687 -3 3 -120z"/>
<path d="M73 3994 c-41 -20 -73 -71 -73 -114 0 -18 6 -74 14 -124 8 -50 24
-163 36 -251 40 -307 57 -436 89 -668 11 -75 27 -107 68 -134 25 -16 61 -18
408 -18 209 0 392 3 407 8 37 10 80 68 81 109 1 44 -20 89 -52 113 -24 19 -45
20 -338 23 -357 3 -326 -6 -337 102 -6 61 -14 113 -51 373 -8 56 -19 143 -25
194 -6 50 -15 115 -20 144 -6 28 -10 70 -10 93 -1 58 -31 119 -72 144 -42 26
-81 28 -125 6z"/>
<path d="M7079 3985 c-41 -27 -69 -85 -69 -144 0 -21 -4 -62 -10 -90 -5 -29
-14 -94 -20 -144 -6 -51 -17 -138 -25 -194 -37 -260 -45 -312 -51 -373 -11
-108 20 -99 -337 -102 -293 -3 -314 -4 -338 -23 -32 -24 -53 -69 -52 -113 1
-41 44 -99 81 -109 15 -5 198 -8 407 -8 347 0 383 2 408 18 41 27 57 59 68
134 32 232 49 361 89 668 12 88 28 201 36 251 8 50 14 106 14 124 0 67 -67
131 -137 129 -15 0 -44 -11 -64 -24z"/>
</g>
</svg>
