<?xml version="1.0" standalone="no"?>
<!DOCTYPE svg PUBLIC "-//W3C//DTD SVG 20010904//EN"
 "http://www.w3.org/TR/2001/REC-SVG-20010904/DTD/svg10.dtd">
<svg version="1.0" xmlns="http://www.w3.org/2000/svg"
 width="191.000000pt" height="184.000000pt" viewBox="0 0 191.000000 184.000000"
 preserveAspectRatio="xMidYMid meet">

<g transform="translate(0.000000,184.000000) scale(0.100000,-0.100000)"
fill="#000000" stroke="none">
<path d="M476 1554 c-14 -14 -16 -78 -16 -560 0 -531 0 -544 20 -564 19 -19
33 -20 299 -20 241 0 282 2 295 16 13 13 16 40 14 157 -1 78 -4 109 -5 70 l-4
-73 -299 0 -300 0 0 75 0 75 174 0 175 0 3 28 c3 26 5 27 77 30 42 2 131 -6
203 -18 l129 -20 97 56 c166 97 192 115 198 140 3 13 10 24 15 24 5 0 9 14 9
31 0 22 -5 32 -20 36 -12 3 -20 14 -20 27 0 41 -35 119 -74 163 -42 48 -120
93 -161 93 -21 0 -25 4 -20 19 6 20 -17 51 -39 51 -19 0 -36 -22 -36 -46 0
-17 -8 -23 -38 -28 -80 -12 -190 -118 -206 -198 -3 -16 -8 -39 -11 -53 -3 -14
-12 -25 -19 -25 -8 0 -17 -7 -20 -16 -9 -25 -7 -54 5 -54 5 0 7 -4 4 -10 -3
-5 -22 -10 -41 -10 -30 0 -34 3 -34 25 l0 25 -175 0 -175 0 0 205 0 205 299 0
300 0 4 -37 c2 -21 4 9 5 67 1 71 -2 110 -10 118 -9 9 -89 12 -299 12 -248 0
-290 -2 -303 -16z m594 -13 c5 -11 10 -42 10 -70 l0 -51 -300 0 -300 0 0 58
c0 32 5 63 12 70 9 9 87 12 290 12 264 0 278 -1 288 -19z m175 -191 c0 -8 -8
-16 -17 -18 -13 -2 -18 3 -18 18 0 15 5 20 18 18 9 -2 17 -10 17 -18z m108
-70 c81 -41 146 -134 147 -207 l0 -33 -275 0 c-314 0 -293 -8 -255 92 23 63
85 128 150 158 62 29 166 24 233 -10z m185 -277 l3 -23 -315 0 c-305 0 -316 1
-316 19 0 11 6 22 13 24 6 3 147 5 312 4 l300 -2 3 -22z m-718 -138 l0 -115
-170 0 -170 0 0 115 0 115 170 0 170 0 0 -115z m245 89 c33 -9 85 -22 115 -28
40 -9 56 -17 59 -31 5 -29 -24 -44 -67 -34 -20 5 -48 8 -62 8 -39 -2 46 -27
93 -28 30 -1 40 4 48 23 7 14 23 27 38 31 14 3 63 22 108 41 85 37 116 40 121
13 2 -11 -41 -41 -140 -99 l-143 -84 -135 23 c-77 13 -163 21 -200 19 l-65 -3
-3 63 -3 62 31 0 c17 0 41 5 53 12 18 9 55 21 87 27 3 1 33 -6 65 -15z m335 8
c0 -4 -30 -19 -67 -34 -66 -25 -68 -26 -90 -8 -13 10 -46 21 -73 25 -99 14
-60 25 84 25 80 0 146 -4 146 -8z m-320 -456 c0 -33 -5 -58 -14 -65 -9 -8 -96
-11 -297 -9 l-284 3 -3 63 -3 62 301 0 300 0 0 -54z"/>
<path d="M640 1490 c0 -6 53 -10 140 -10 87 0 140 4 140 10 0 6 -53 10 -140
10 -87 0 -140 -4 -140 -10z"/>
<path d="M730 789 c0 -5 5 -7 10 -4 6 3 10 8 10 11 0 2 -4 4 -10 4 -5 0 -10
-5 -10 -11z"/>
<path d="M735 490 c3 -5 24 -10 46 -10 21 0 39 5 39 10 0 6 -21 10 -46 10 -27
0 -43 -4 -39 -10z"/>
<path d="M570 1310 c0 -5 5 -10 10 -10 6 0 10 5 10 10 0 6 -4 10 -10 10 -5 0
-10 -4 -10 -10z"/>
<path d="M640 1310 c0 -6 64 -10 171 -10 111 0 168 3 164 10 -4 6 -72 10 -171
10 -103 0 -164 -4 -164 -10z"/>
<path d="M570 1230 c0 -5 5 -10 10 -10 6 0 10 5 10 10 0 6 -4 10 -10 10 -5 0
-10 -4 -10 -10z"/>
<path d="M640 1230 c0 -6 64 -10 171 -10 111 0 168 3 164 10 -4 6 -72 10 -171
10 -103 0 -164 -4 -164 -10z"/>
<path d="M570 1150 c0 -5 5 -10 10 -10 6 0 10 5 10 10 0 6 -4 10 -10 10 -5 0
-10 -4 -10 -10z"/>
<path d="M640 1150 c0 -6 45 -10 115 -10 70 0 115 4 115 10 0 6 -45 10 -115
10 -70 0 -115 -4 -115 -10z"/>
<path d="M920 670 c0 -42 16 -56 22 -19 3 21 4 20 32 -5 38 -36 47 -24 11 14
-28 29 -28 30 -7 30 12 0 22 5 22 10 0 6 -18 10 -40 10 l-40 0 0 -40z"/>
</g>
</svg>
